<svg xmlns="http://www.w3.org/2000/svg" width="44" height="44" fill="none" viewBox="0 0 44 44">
  <path fill="#5ED5A8" d="M32 19.75c-.41 0-.75-.34-.75-.75v-2c0-2.58-1.67-4.25-4.25-4.25H17c-2.58 0-4.25 1.67-4.25 4.25v2c0 .41-.34.75-.75.75s-.75-.34-.75-.75v-2c0-3.44 2.31-5.75 5.75-5.75h10c3.44 0 5.75 2.31 5.75 5.75v2c0 .41-.34.75-.75.75Zm-5 13H17c-3.44 0-5.75-2.31-5.75-5.75v-2c0-.41.34-.75.75-.75s.75.34.75.75v2c0 2.58 1.67 4.25 4.25 4.25h10c2.58 0 4.25-1.67 4.25-4.25v-2c0-.41.34-.75.75-.75s.75.34.75.75v2c0 3.44-2.31 5.75-5.75 5.75Zm5-10H12c-.41 0-.75-.34-.75-.75s.34-.75.75-.75h20c.41 0 .75.34.75.75s-.34.75-.75.75Z"/>
  <path fill="#5ED5A8" d="M26.5 19h-9c-.28 0-.5-.22-.5-.5v-2c0-.82.67-1.5 1.5-1.5h7c.83 0 1.5.68 1.5 1.5v2c0 .28-.22.5-.5.5Zm0 6h-9c-.28 0-.5.22-.5.5v2c0 .82.67 1.5 1.5 1.5h7c.83 0 1.5-.68 1.5-1.5v-2c0-.28-.22-.5-.5-.5Z" opacity=".1"/>
</svg>
